<?xml version="1.0" encoding="UTF-8" standalone="no"?>
<!-- Created with Inkscape (http://www.inkscape.org/) -->

<svg
   xmlns:dc="http://purl.org/dc/elements/1.1/"
   xmlns:cc="http://creativecommons.org/ns#"
   xmlns:rdf="http://www.w3.org/1999/02/22-rdf-syntax-ns#"
   xmlns:svg="http://www.w3.org/2000/svg"
   xmlns="http://www.w3.org/2000/svg"
   xmlns:sodipodi="http://sodipodi.sourceforge.net/DTD/sodipodi-0.dtd"
   xmlns:inkscape="http://www.inkscape.org/namespaces/inkscape"
   width="210mm"
   height="297mm"
   id="svg2"
   version="1.1"
   inkscape:version="0.48.2 r9819"
   sodipodi:docname="Neues Dokument 1">
  <defs
     id="defs4" />
  <sodipodi:namedview
     id="base"
     pagecolor="#ffffff"
     bordercolor="#666666"
     borderopacity="1.0"
     inkscape:pageopacity="0.0"
     inkscape:pageshadow="2"
     inkscape:zoom="0.7"
     inkscape:cx="353.65892"
     inkscape:cy="563.91548"
     inkscape:document-units="px"
     inkscape:current-layer="layer1"
     showgrid="false"
     inkscape:window-width="1440"
     inkscape:window-height="849"
     inkscape:window-x="0"
     inkscape:window-y="0"
     inkscape:window-maximized="1" />
  <metadata
     id="metadata7">
    <rdf:RDF>
      <cc:Work
         rdf:about="">
        <dc:format>image/svg+xml</dc:format>
        <dc:type
           rdf:resource="http://purl.org/dc/dcmitype/StillImage" />
        <dc:title></dc:title>
      </cc:Work>
    </rdf:RDF>
  </metadata>
  <g
     inkscape:label="Ebene 1"
     inkscape:groupmode="layer"
     id="layer1">
    <path
       style="fill:#552200"
       id="path3021"
       d="m 259.79775,382.588 c -1.46019,-3.1818 -3.9289,-5.54538 -6.6883,-7.6023 -3.7091,-2.47781 -7.63013,-4.64552 -11.82998,-6.15398 -5.41401,-1.74314 -10.83308,-3.44127 -16.31721,-4.94695 -5.99698,-1.5907 -12.21025,-1.89956 -18.37842,-2.13136 -9.23142,-0.55098 -18.41521,0.52486 -27.54969,1.72986 -12.47714,2.22227 -24.96794,4.47573 -37.32551,7.30419 -7.72602,2.0249 -15.48336,4.10792 -22.93269,7.02342 -5.20147,2.03573 -6.00244,2.57604 -11.01937,5.07673 -1.79877,1.02643 -7.24983,4.0032 -5.39631,3.07929 2.27314,-1.13307 4.28737,-2.79279 6.6568,-3.70759 1.90701,-0.73627 -3.51347,2.091 -5.25254,3.16543 -4.57293,2.82523 -8.890281,5.87382 -13.168324,9.12193 -5.123888,4.52876 -10.655847,8.74646 -15.080392,14.00722 -2.748664,3.26815 -3.850097,5.29419 -6.137754,8.91808 -5.477047,9.6679 -9.665583,20.15326 -12.245945,30.97242 -0.581481,2.43808 -1.006664,4.91081 -1.509996,7.36622 -1.705896,9.92945 -2.605747,19.99902 -1.940503,30.07091 0.370222,5.60523 0.889516,8.24033 1.728537,13.72374 1.516465,7.16088 3.57101,14.27766 6.54826,20.98181 1.072654,2.4154 2.277846,4.52759 3.535355,6.83396 1.734662,2.63365 3.471966,5.44026 5.915729,7.50059 0.7521,0.63409 2.08316,1.42674 2.917494,1.94861 3.658073,1.91854 7.699571,1.98381 11.69318,1.41755 8.57293,-1.70612 16.939509,-4.27987 25.411879,-6.40694 15.96869,-4.32841 31.38872,-10.39742 46.88593,-16.13345 18.94165,-7.10104 38.17819,-13.41697 57.56005,-19.20203 16.10484,-4.94073 32.472,-8.94489 49.09454,-11.67034 8.78243,-1.32378 17.64123,-1.99996 26.5031,-1.11941 4.89728,0.48662 6.11286,0.89389 10.83393,1.93068 8.35431,2.08835 13.84833,5.36441 19.36401,11.99559 1.11254,1.33755 2.10082,2.77375 3.15122,4.16063 4.8644,7.15756 9.22222,14.70081 12.7509,22.61135 2.09734,4.70179 3.72706,9.24919 5.54279,14.06708 5.28039,15.22882 9.74354,30.70191 13.39635,46.39673 1.65828,7.0275 2.31665,14.20381 2.59946,21.40024 0.15793,4.01881 0.27647,9.63032 -0.0392,13.6676 -0.17101,2.18708 -0.55789,4.3519 -0.83683,6.52786 -2.12186,10.84001 -5.96829,21.39529 -12.20834,30.57298 -1.26179,1.85581 -2.70384,3.58242 -4.05576,5.37363 -12.05721,14.10524 -26.50623,22.46095 -42.84338,31.21429 -2.92608,1.56777 -6.04447,2.74658 -9.0667,4.11987 -3.52936,1.14867 -7.01394,2.44529 -10.58807,3.446 -9.47566,2.65307 -16.26986,3.79866 -26.10109,5.26707 -15.69094,2.34364 -31.42876,3.6385 -47.23979,4.81248 -26.23396,1.5906 -52.57448,2.41638 -78.81932,0.54709 -4.54328,-0.32359 -9.07151,-0.832 -13.60727,-1.248 -15.423134,-1.70053 -30.604244,-5.24521 -45.044307,-10.95435 -6.060632,-2.39619 -9.922474,-4.41684 -15.691097,-7.24083 -7.297232,-3.95789 -14.342092,-8.82267 -18.708552,-16.08102 -2.643714,-4.39464 -2.832701,-6.15897 -4.330405,-11.09549 -2.561346,-11.84776 -2.555816,-24.31112 0.805623,-36.0263 0.650006,-2.26538 1.584965,-4.43911 2.377447,-6.65867 3.865663,-8.56962 9.926294,-15.85031 17.593873,-21.30434 5.94542,-4.22905 22.934392,-12.87423 25.450409,-14.22812 9.912073,-4.45749 20.232704,-7.86283 30.518439,-11.32454 1.63393,-0.67158 3.30761,-0.92494 5.04852,-1.01887 0,0 -12.00051,8.89142 -12.00051,8.89142 l 0,0 c -1.572194,0.21821 -3.111188,0.55435 -4.609193,1.1004 -10.048145,3.20585 -20.103021,6.44728 -29.686359,10.90548 1.55201,-1.11155 6.494841,-3.84753 4.656032,-3.33464 -2.438516,0.68016 -4.444821,2.44014 -6.540567,3.86029 -7.674565,5.20055 -13.784378,12.27741 -17.846456,20.59275 -0.832075,2.17295 -1.810893,4.29524 -2.496224,6.51883 -2.052694,6.66007 -3.043288,14.75223 -2.860772,21.71611 0.138302,5.27695 0.945373,8.45161 1.915583,13.56116 1.442045,4.66195 1.686047,6.48639 4.180304,10.64485 4.209367,7.0179 11.001564,11.78788 17.975068,15.75155 5.837376,2.97643 9.118053,4.79152 15.298317,7.319 14.175866,5.79734 29.135597,9.29821 44.335067,11.0402 4.48172,0.43404 8.9554,0.96131 13.44518,1.30213 26.11793,1.98267 52.34463,1.19137 78.45411,-0.48025 15.90093,-1.24218 31.72346,-2.6006 47.48229,-5.14371 9.74645,-1.57285 17.02278,-2.94418 26.40823,-5.7461 3.60557,-1.0764 7.11156,-2.46186 10.66733,-3.69278 3.04147,-1.43433 5.97603,-3.12164 9.12441,-4.30297 1.33293,-0.50014 -4.78718,3.07881 -3.63461,2.24309 2.24451,-1.62746 4.67673,-2.98575 6.91505,-4.6217 5.93148,-4.33523 11.3807,-9.3597 16.25376,-14.84924 1.36852,-1.74781 2.82648,-3.42914 4.10557,-5.24342 6.32048,-8.96498 10.19313,-19.35417 12.43527,-30.03147 0.30788,-2.13852 0.72628,-4.26402 0.92366,-6.41555 0.38591,-4.20643 0.29943,-9.38658 0.15288,-13.58641 -0.24891,-7.13271 -0.79483,-14.27206 -2.37957,-21.25038 -3.49046,-15.67508 -7.98192,-31.07196 -13.30797,-46.22524 -1.89442,-4.9164 -3.42359,-9.10668 -5.59843,-13.89571 -3.54455,-7.80516 -7.89175,-15.23806 -12.89024,-22.19833 -1.04771,-1.3355 -2.03493,-2.72074 -3.14311,-4.00649 -5.27839,-6.12413 -10.97007,-9.42682 -18.81597,-11.32399 -4.62328,-0.98961 -5.80277,-1.37795 -10.59532,-1.83347 -8.74102,-0.83081 -17.47655,-0.0768 -26.13183,1.23238 -16.46059,2.7134 -32.66931,6.67064 -48.62899,11.53289 -19.39191,5.78406 -38.62578,12.135 -57.55142,19.30688 -15.68293,5.84736 -31.30387,11.98524 -47.46792,16.40393 -8.649821,2.28428 -17.200381,5.05959 -26.021996,6.61648 -4.307942,0.37173 -8.609286,0.14541 -12.40425,-2.16173 -1.123378,-0.75763 -2.038297,-1.31758 -3.048981,-2.24303 -2.45912,-2.25174 -4.200019,-5.19079 -5.899337,-8.01551 -1.107893,-2.21009 -2.459988,-4.82916 -3.40948,-7.08283 -2.89694,-6.87603 -4.916048,-14.12832 -6.396686,-21.42765 -0.760943,-5.25958 -1.337769,-8.56608 -1.698511,-13.91784 -0.68534,-10.1673 0.207259,-20.32733 1.824225,-30.36816 0.479209,-2.47641 0.881882,-4.96886 1.437627,-7.42922 2.4539,-10.86376 6.504496,-21.41801 11.783783,-31.20992 2.100505,-3.48497 3.436082,-5.96896 5.978376,-9.14523 4.320096,-5.3974 9.915074,-9.59475 14.984597,-14.23123 12.847484,-9.98007 27.181953,-17.70691 41.328173,-25.68698 1.84889,-0.89178 3.67203,-1.83904 5.54668,-2.67533 9.15513,-4.08416 18.88874,-6.70145 28.58136,-9.14572 12.42241,-2.75935 24.94891,-5.07721 37.48206,-7.26467 9.29495,-1.24794 18.64379,-2.30949 28.04069,-1.78584 6.268,0.25276 12.57202,0.6539 18.64458,2.35502 5.52152,1.53285 10.98215,3.25731 16.43528,5.0184 4.3003,1.6412 8.36679,3.83294 12.14982,6.46163 2.90849,2.23819 5.44935,4.82674 7.22861,8.07482 0,0 -13.04005,7.4248 -13.04005,7.4248 z"
       inkscape:connector-curvature="0"
       inkscape:export-filename="/home/deadshox/path3041.png"
       inkscape:export-xdpi="48.313042"
       inkscape:export-ydpi="48.313042" />
    <path
       style="fill:#552200"
       id="path3023"
       d="m 336.08572,530.2959 c 1.73995,-2.93682 3.20691,-6.00843 4.51763,-9.15588 1.4595,-3.23369 2.77777,-6.53197 4.28051,-9.74551 1.2934,-3.11378 3.12984,-5.79777 5.60874,-8.0626 6.39203,-5.2079 13.85194,-8.98834 21.48285,-12.02335 3.77571,-1.36951 7.46924,-1.77932 11.43738,-1.32555 5.70226,0.89251 11.07429,2.92108 16.36265,5.14792 6.48007,2.82906 12.91535,5.74019 19.2842,8.81185 6.07591,2.79875 12.16077,5.55729 18.04648,8.73988 4.70008,2.18698 8.34496,5.62955 11.44434,9.70491 3.2378,4.97651 5.64643,10.42531 7.87958,15.90812 2.05781,5.16449 3.8583,10.42376 5.71307,15.66307 1.42976,3.94166 1.78073,8.09477 1.96821,12.24589 0.0911,5.06288 0.15277,10.13391 -0.0626,15.19404 -0.16854,5.3583 -1.18446,10.63441 -2.46561,15.82454 -1.29591,4.65782 -2.70999,9.28554 -4.0737,13.92727 -1.65333,5.04742 -3.02794,10.17885 -4.63201,15.24114 -1.37625,4.73161 -3.62829,9.08538 -5.99171,13.37739 -1.8011,3.52379 -3.64986,7.01753 -5.65643,10.42898 -1.71092,3.20707 -4.0558,5.88606 -6.63647,8.40612 -2.25044,2.55259 -4.94831,4.55979 -7.79932,6.38104 -6.55602,4.01402 2.1319,-1.28742 -15.82255,9.19166 -3.67688,2.14601 14.81278,-8.39876 11.06819,-6.37323 -5.96168,3.22481 -11.84416,6.75335 -17.78992,10.06601 -4.10398,2.15408 -8.61034,3.22769 -13.12365,4.1319 -4.50277,0.80329 -9.02437,1.40361 -13.58675,1.7224 -3.33678,0.27109 -6.6424,0.36178 -9.96111,-0.0715 -3.07505,-0.40102 -6.15263,-1.07199 -9.02021,-2.26235 -2.94302,-1.01452 -5.51928,-2.72956 -8.0661,-4.47433 -2.10288,-1.62582 -4.20256,-3.23836 -6.29487,-4.87509 -1.97047,-1.46812 -3.79911,-2.92836 -5.28667,-4.8961 -1.25247,-1.79607 -1.57415,-3.97816 -2.79769,-5.78385 -1.04672,-1.05818 -0.51753,-0.51991 -1.58728,-1.61508 0,0 12.75188,-7.78492 12.75188,-7.78492 l 0,0 c 1.12293,1.173 0.55084,0.56101 1.71341,1.83863 1.2235,1.79673 1.67751,3.84686 2.77672,5.69971 1.42016,1.83765 3.2212,3.17248 5.04689,4.59269 2.0758,1.6066 4.13741,3.2303 6.24425,4.79607 2.46765,1.67382 4.95864,3.28778 7.82435,4.21249 2.86679,0.97712 5.83531,1.63739 8.853,1.93352 3.22058,0.33116 6.45285,0.11927 9.67807,-0.0755 4.51203,-0.36999 8.99032,-1.00011 13.43767,-1.85186 4.4739,-0.98078 8.89694,-2.23813 12.9039,-4.52169 0.59517,-0.32893 1.18818,-0.6618 1.78551,-0.98679 0.57286,-0.31167 2.28596,-1.25574 1.72499,-0.92315 -3.66958,2.17564 -14.76791,8.54889 -11.05217,6.45308 48.02547,-27.088 -8.13255,4.15452 4.74155,-2.76821 2.84696,-1.77349 5.7617,-3.50186 7.93875,-6.11392 2.57681,-2.43123 5.08604,-4.88743 6.80133,-8.03786 2.01872,-3.4044 3.97987,-6.83766 5.71201,-10.39972 2.31592,-4.27087 4.87967,-8.43405 6.1946,-13.16782 1.66321,-5.02604 2.96016,-10.15902 4.61502,-15.18776 1.35753,-4.63704 2.71845,-9.27052 4.11246,-13.89062 1.35888,-5.08712 2.41586,-10.29807 2.63163,-15.57036 0.2489,-5.00447 0.12203,-10.01762 0.0211,-15.02569 -0.16485,-4.01589 -0.45566,-8.04646 -1.74082,-11.8883 -1.73556,-5.2587 -3.50093,-10.51169 -5.54349,-15.6605 -2.18812,-5.35855 -4.53765,-10.69022 -7.79023,-15.50404 -3.02482,-3.8706 -6.55189,-7.11152 -11.0413,-9.23765 -5.8355,-3.19667 -11.8811,-5.95414 -17.92604,-8.7292 -6.36554,-3.03148 -12.74824,-6.01849 -19.25749,-8.73316 -5.24686,-2.12432 -10.62688,-4.0135 -16.28826,-4.64231 -3.80855,-0.16324 -7.5289,0.43152 -11.0673,1.90643 -1.16535,0.48126 -2.1433,0.86657 -3.28001,1.4083 -0.53923,0.25698 -2.11126,1.11633 -1.59852,0.8099 20.47012,-12.23366 12.96905,-7.95353 8.84065,-4.93386 -2.6196,1.99046 -4.68741,4.39697 -5.87487,7.5152 -1.67756,3.10158 -2.80301,6.48486 -4.34142,9.66108 -1.3276,3.14288 -2.66675,6.26367 -4.30838,9.26068 0,0 -13.67864,6.09742 -13.67864,6.09742 z"
       inkscape:connector-curvature="0"
       inkscape:export-filename="/home/deadshox/path3041.png"
       inkscape:export-xdpi="48.313042"
       inkscape:export-ydpi="48.313042" />
    <path
       style="fill:#552200"
       id="path3037"
       d="m 453.56846,524.30026 c 2.42287,1.54796 5.18792,2.39865 7.68342,3.8094 1.99595,1.23505 4.31856,1.4286 6.60184,1.59059 3.22407,-0.45568 6.38905,-1.3763 9.45051,-2.48542 4.10565,-1.26572 8.30189,-2.20558 12.36447,-3.62305 2.88674,-0.99776 5.87229,-1.58085 8.9087,-1.83813 1.43898,-0.51995 3.08101,-0.35692 4.49073,-0.96067 0.38803,-0.16618 0.72723,-0.42878 1.09085,-0.64317 0.46487,-0.19053 0.92974,-0.38106 1.39462,-0.57159 3.27363,-1.62797 6.61517,-3.11206 9.81109,-4.88987 -22.19085,13.21696 -7.64867,4.36909 -2.71641,0.91484 2.76218,-2.16809 5.68553,-4.25065 8.07962,-6.83306 2.30299,-2.77594 4.49468,-5.63311 6.41287,-8.68926 1.7149,-2.75218 2.91835,-5.75768 3.98043,-8.80681 0.80089,-2.54109 1.94742,-4.9402 2.89564,-7.42613 0.67536,-1.65648 1.27125,-3.35265 1.79686,-5.06209 4.61102,-1.91368 9.07897,-4.21714 13.83306,-5.74105 0.33497,-0.10738 0.92319,7.73772 0.93612,8.19033 0.0242,4.86233 -0.49586,9.69406 -0.90685,14.53123 -0.51398,6.00079 -0.59557,12.02494 -0.68273,18.0433 -0.26296,5.84245 -0.55623,11.68421 -1.09445,17.50827 -0.47403,4.45882 -0.69279,8.93668 -0.81205,13.41712 -0.0728,4.30164 -0.0924,8.60401 -0.11422,12.90621 0.0108,5.42212 -0.96994,10.7857 -1.45165,16.17948 -0.42931,5.16397 -0.50546,10.3478 -0.5434,15.52666 -0.0475,4.27188 0.18644,8.54309 -0.34075,12.79086 -0.92289,3.90132 -0.93784,7.87316 -0.88299,11.85438 0.0862,3.92195 0.17956,7.84332 0.21558,11.76612 0.17906,3.67883 -0.067,7.33424 -0.39808,10.9947 -0.39293,4.12399 -0.48459,8.26677 -0.54703,12.40622 -0.0419,3.53852 -0.027,7.0774 -0.0256,10.61608 0.004,3.7546 0.10954,7.49796 -0.37803,11.2268 -0.74984,4.08695 -1.19445,8.21428 -1.45749,12.35816 -0.0586,3.5573 -0.2498,7.09059 -0.61744,10.62854 -0.18432,3.54919 0.22993,7.08724 0.16436,10.63658 -0.49979,5.25056 -0.28729,10.52022 -0.12944,15.78135 0.28135,5.45654 0.80286,10.89685 1.39624,16.32697 0.68098,4.77214 0.8023,9.39688 0.23082,14.17461 -0.41173,4.24543 -1.05456,8.40339 -2.48748,12.42851 -1.24168,3.43939 -2.71085,6.79475 -4.43626,10.01812 -1.3942,2.91329 -3.27672,5.44234 -5.6597,7.60961 -2.17837,1.85444 -4.5897,3.40444 -6.89705,5.08925 -5.14022,3.74874 -10.98451,6.56042 -16.48488,9.6257 -1.34921,0.75189 -2.86721,1.15999 -4.26945,1.80307 -2.63041,1.06446 -5.39329,1.83493 -8.19872,2.26986 -2.98733,0.4034 -6.00854,0.39115 -9.0167,0.4164 -1.96316,-0.0815 -3.96393,0.20982 -5.90899,-0.16653 -0.92027,-0.17806 -1.81051,-0.48629 -2.71651,-0.72665 -2.67834,-0.33153 -4.97565,-1.44663 -7.32729,-2.67516 -2.20885,-1.09861 -4.16803,-2.5747 -6.21572,-3.92884 -2.45718,-1.27374 -4.16515,-3.30343 -5.66412,-5.56655 -2.23512,-3.18019 -3.59526,-6.84369 -4.63846,-10.55879 -1.17386,-3.77411 -1.77757,-7.6518 -2.08625,-11.5804 -0.42741,-3.92446 -0.12061,-7.76491 0.60537,-11.62284 0.53958,-3.48822 1.81128,-6.79122 3.30955,-9.96672 1.40983,-3.21086 3.46496,-6.03159 5.44884,-8.89441 1.90244,-2.81563 3.97718,-5.50104 6.34312,-7.94126 2.29548,-2.083 4.42632,-4.3431 6.85283,-6.27587 2.43012,-1.87043 5.00391,-3.51889 7.63589,-5.08556 6.76811,-4.04323 13.67536,-8.11286 20.96097,-11.2058 3.14893,-1.43793 6.48199,-2.44416 9.75441,-3.57112 3.76844,-0.70889 7.31624,-2.14906 10.99875,-3.17513 2.36796,-0.76375 4.83315,-1.1428 7.22933,-1.77539 2.53861,-0.4105 4.95843,-1.19202 7.384,-2.01896 2.74199,-0.93264 5.64179,-1.53229 8.26574,-2.75978 3.27711,-1.51404 6.45087,-3.20792 9.61632,-4.94246 4.97784,-2.7099 4.82404,-2.6422 -9.56949,5.5514 -0.49227,0.28023 0.97183,-0.58258 1.44834,-0.88885 1.42651,-0.91688 2.799,-1.9226 4.20201,-2.87481 2.70295,-1.87722 4.88964,-4.34571 7.25383,-6.60653 2.27529,-2.07054 4.23163,-4.41467 6.01618,-6.91099 1.59925,-2.3004 2.85103,-4.81392 4.25568,-7.23328 1.73613,-2.7776 2.38738,-5.92564 2.74889,-9.13045 0.4791,-3.11571 0.86406,-6.23704 1.05955,-9.38374 0.1866,-3.34139 0.18046,-6.68899 0.1959,-10.03433 0.18804,-3.66231 0.58505,-7.30943 1.08674,-10.9407 0.41557,-3.82634 0.84334,-7.65077 1.52239,-11.44096 0.84475,-3.43995 2.22866,-6.72889 3.61577,-9.98041 1.53316,-3.76976 3.42381,-7.36218 5.4281,-10.89834 1.88763,-3.79887 4.04989,-7.45 6.10025,-11.16125 1.9852,-3.52913 4.0146,-7.04016 6.2457,-10.42019 2.42127,-3.64218 4.70997,-7.36908 7.33527,-10.86944 2.06193,-2.96077 4.55934,-5.46692 7.60425,-7.38869 6.28475,-3.88346 12.2103,-8.87212 19.43176,-10.73162 2.26673,-0.42847 4.44528,-1.10336 6.75664,-1.31229 2.51532,-0.1738 5.03953,-0.17924 7.5599,-0.19265 2.25646,-0.23911 4.31999,0.40979 6.43373,1.08107 2.56964,0.54232 4.91008,1.78004 7.33159,2.74827 2.17467,0.83505 4.47993,1.08617 6.78665,1.2052 4.3302,-1.06401 16.5436,-8.83435 -10.81558,6.36317 -0.0661,0.0367 0.76288,-0.34663 0.7949,-1.33029 -0.44937,-1.90303 -3.05364,-1.81872 -4.61751,-2.28138 -2.98873,-0.79439 -6.1,-0.88167 -9.17286,-0.98855 -3.35512,0.0335 -6.79912,0.24266 -10.10057,0.89021 -2.64539,0.52692 -5.18773,1.40241 -7.85897,1.83008 -0.57845,0.40323 -1.33466,0.30303 -1.94643,0.5967 -0.30515,0.14648 -0.49665,0.48431 -0.80989,0.61257 -0.25849,0.10584 -2.64974,0.57402 -3.04043,0.64833 -2.61571,0.44052 -5.23018,1.25992 -7.62619,2.40429 -5.48401,3.28611 2.33757,-1.41238 10.28695,-5.844 0.41016,-0.22866 -0.77864,0.52573 -1.15573,0.80559 -1.07039,0.79439 -2.07659,1.66505 -3.15222,2.45384 -1.95479,1.46993 -3.98702,2.8987 -5.71697,4.63647 -1.79852,1.74417 -3.06677,2.8349 -4.17703,5.1287 -0.99049,2.26494 -1.90319,4.56555 -2.69161,6.90862 -0.83731,2.36277 -1.52607,4.7762 -2.19311,7.192 -0.74455,2.54631 -2.04727,4.86765 -3.00806,7.33688 -1.42124,3.03912 -2.62914,6.13139 -3.56776,9.35295 -1.05281,3.41956 -1.83949,6.91463 -2.54681,10.41994 -0.36774,2.93256 -1.1941,5.76196 -1.91933,8.61569 -0.53628,2.98117 -1.56682,5.82625 -2.19672,8.78571 -0.8622,3.46348 -2.13,6.79983 -2.95823,10.27168 -0.75789,2.96914 -1.33021,5.97343 -1.62255,9.02335 -0.3532,2.60012 -0.0854,5.12216 0.59552,7.63422 1.07365,2.59547 2.34769,3.46779 4.75747,4.68783 2.35333,1.12692 4.91365,1.41875 7.4358,1.92492 3.51774,0.53387 7.03809,1.07628 10.56985,1.52271 3.75868,0.0997 7.38353,0.93145 11.03437,1.73541 2.7044,0.62255 5.37243,1.28879 8.13581,1.59936 2.54801,0.24187 5.10981,0.23644 7.66656,0.25234 2.58164,-0.004 5.16329,-0.006 7.74492,-0.0142 2.66408,0.21333 4.96475,-0.68606 7.28364,-1.85342 5.52387,-3.27288 -3.05636,1.81786 -10.10034,5.79524 -0.495,0.2795 0.96037,-0.6091 1.4276,-0.9329 1.442,-0.99933 2.75971,-2.10998 4.0627,-3.28021 2.10607,-1.84487 4.60195,-3.03961 6.22588,-5.37126 1.43959,-2.59551 2.45568,-5.34276 3.28916,-8.18114 0.69308,-3.05049 1.35294,-6.1167 1.78881,-9.21634 0.3929,-3.36304 0.45178,-6.75304 0.50308,-10.13493 0.0287,-3.62197 0.008,-7.24429 -0.0143,-10.86627 -0.0178,-3.29728 -0.005,-6.59455 0.005,-9.89184 0.0818,-3.57779 -0.10759,-7.1626 0.0636,-10.73728 0.20072,-2.56016 1.03791,-4.99985 1.46991,-7.52201 0.34317,-2.30806 0.40475,-4.64456 0.44184,-6.9738 -0.0331,-2.54123 0.38673,-5.06505 0.94921,-7.53519 0.64637,-2.45998 0.79731,-5.00252 1.23853,-7.49956 0.48673,-2.58781 0.65827,-5.21641 0.78063,-7.84187 0.0314,-2.07717 0.13619,-4.16116 0.0129,-6.23716 14.7138,-24.64538 13.35993,-6.19228 13.33772,-1.57601 0.19028,3.15557 0.60154,6.28906 0.78913,9.44548 0.18503,3.63791 0.17396,7.28306 0.17589,10.92475 0.0132,3.08235 0.0451,6.16458 0.0631,9.2469 0.008,2.15118 0.0217,4.30242 0.004,6.45356 -0.16274,2.26408 0.23904,4.48162 0.56365,6.70942 0.3564,2.4133 0.38234,4.85609 0.40227,7.29022 0.0554,3.20063 -0.0743,6.40325 0.0995,9.60034 0.16628,3.14927 0.87708,6.21997 1.37117,9.32435 0.44377,2.7043 0.50798,5.44506 0.5607,8.1784 -0.10628,2.58724 0.27323,5.13791 0.59905,7.69452 0.14448,2.95755 0.98833,5.78689 1.92083,8.57431 0.95122,2.43737 1.89449,4.86955 2.98776,7.24743 1.05662,2.11482 2.3544,3.87959 4.36417,5.13916 2.04143,0.99057 4.36944,0.9415 6.58879,1.00756 2.50972,0.0358 5.01982,0.008 7.5297,0.007 3.17964,0.01 6.35928,-0.003 9.53893,-0.003 2.66855,-0.006 5.33708,-0.0198 8.00563,-0.0273 2.07443,-0.005 4.14888,-0.006 6.22331,-0.006 1.6096,-0.18274 3.11797,0.25249 4.67337,0.57154 0,0 -12.3073,8.57098 -12.3073,8.57098 l 0,0 c -1.48468,-0.29744 -2.95836,-0.43658 -4.47702,-0.34343 -2.06849,-5.1e-4 -4.13699,-0.001 -6.20547,-0.007 -2.64446,-0.007 -5.2889,-0.0211 -7.93337,-0.0238 -3.1916,0.005 -6.38328,-1.1e-4 -9.57475,0.0348 -2.52524,0.0194 -5.05207,0.0477 -7.57584,-0.0614 -2.46011,-0.1412 -4.978,-0.26246 -7.09872,-1.66719 -2.09797,-1.5482 -3.55161,-3.51335 -4.70279,-5.85457 -1.17569,-2.41343 -2.13583,-4.8957 -3.07808,-7.40806 -0.93291,-2.87161 -1.89846,-5.77931 -2.09795,-8.8134 -0.3016,-2.6103 -0.78914,-5.20694 -0.6466,-7.84579 -0.035,-2.67395 -0.0984,-5.35368 -0.45537,-8.00781 -0.45391,-3.15392 -1.20108,-6.26097 -1.38738,-9.45095 -0.2727,-3.20984 -0.1021,-6.43387 -0.17985,-9.65289 -0.046,-2.36722 -0.0794,-4.74091 -0.37436,-7.09341 -0.30942,-2.29374 -0.8083,-4.56942 -0.65295,-6.89819 -0.0172,-2.15395 -0.002,-4.30799 0.01,-6.46194 0.0236,-3.10191 0.0636,-6.20373 0.0652,-9.30576 -0.0199,-3.60729 -0.031,-7.21595 -0.19891,-10.82014 -0.18456,-3.17845 -0.51123,-6.34221 -0.8638,-9.50599 -0.0366,-9.11261 -1.61508,-3.97166 13.3799,-12.19065 0.0489,-0.0268 -0.0169,0.11011 -0.0253,0.16517 -0.11337,2.11486 -0.0315,4.23547 -0.11297,6.35165 -0.0736,2.68699 -0.28422,5.36876 -0.68999,8.02754 -0.44834,2.52269 -0.65441,5.06711 -1.19151,7.57409 -0.59056,2.36786 -1.10154,4.78447 -1.09316,7.23573 -0.0172,2.39272 -0.0396,4.79041 -0.35152,7.16735 -0.35643,2.52785 -1.12309,4.93496 -1.54565,7.44267 -0.43573,3.52679 -0.0683,7.10853 -0.17708,10.65379 0.0119,3.29254 0.0271,6.58506 0.0187,9.87763 -0.0129,3.6342 -0.0149,7.26845 -0.0239,10.90267 -0.009,3.42635 -0.0138,6.85949 -0.38646,10.27042 -0.3579,3.17663 -1.06013,6.27837 -1.67763,9.41121 -0.80163,2.92537 -1.68391,5.78081 -3.12117,8.46244 -0.19403,0.46221 -0.33125,0.95262 -0.58207,1.38665 -1.23457,2.13629 -3.67187,2.97677 -5.49827,4.4512 -5.99032,5.751 -13.25665,9.77464 -20.79495,13.32358 -2.46608,1.04867 -4.99689,1.49785 -7.69015,1.35337 -2.58085,6.2e-4 -5.16169,0.0164 -7.74251,-0.003 -2.59404,-0.0198 -5.1958,-0.0585 -7.77119,-0.40189 -2.76536,-0.40738 -5.456,-1.12173 -8.17954,-1.73962 -3.60111,-0.84339 -7.21291,-1.429 -10.91091,-1.6532 -3.5576,-0.48222 -7.12105,-0.95099 -10.65823,-1.56138 -2.67313,-0.4688 -5.34911,-0.96522 -7.77022,-2.26428 -2.65063,-1.54902 -4.09342,-2.85084 -5.36285,-5.72549 -0.73358,-2.67 -1.1529,-5.34125 -0.80884,-8.12081 0.25801,-3.11977 0.77839,-6.19363 1.5859,-9.22214 0.72894,-3.48894 1.98131,-6.81197 2.96706,-10.23146 0.53558,-3.00299 1.57271,-5.83841 2.1216,-8.8288 0.6787,-2.85955 1.67631,-5.64393 1.99306,-8.5827 0.71516,-3.53564 1.46209,-7.08087 2.53244,-10.52682 0.84823,-3.26981 1.9096,-6.44312 3.43417,-9.46335 0.95849,-2.42153 1.98225,-4.78954 3.04117,-7.16318 0.62274,-2.44649 1.35099,-4.87946 2.17003,-7.26321 0.72911,-2.40994 1.68785,-4.73477 2.60002,-7.07695 1.11919,-2.48428 1.63314,-3.88283 4.00243,-5.4928 1.51752,-2.04955 3.69749,-3.34478 5.58323,-5.03034 1.08248,-0.64715 1.13059,-0.62458 2.13676,-1.44411 0.44547,-0.36284 1.70087,-1.54349 2.19795,-1.84225 4.61383,-2.773 9.27506,-5.46672 13.94014,-8.15259 0.42461,-0.24447 0.88337,-0.42413 1.32506,-0.63619 2.55284,-0.96083 5.16106,-1.77334 7.85044,-2.25348 1.96395,-0.55206 3.80703,-1.42837 5.82639,-1.78574 2.61949,-0.53762 5.16539,-1.39199 7.81995,-1.76023 3.39053,-0.42219 6.81218,-0.79763 10.23301,-0.62333 3.18222,0.13834 6.3934,0.30136 9.46689,1.21453 2.2575,0.61525 4.8968,1.10617 5.58399,3.70439 1.59638,6.79002 -9.17972,10.87519 -15.42973,10.68472 -2.40432,-0.23071 -4.78039,-0.66638 -7.01569,-1.62142 -2.38018,-1.00657 -4.75491,-2.05006 -7.29124,-2.60796 -2.02097,-0.59674 -4.04286,-0.86995 -6.15669,-0.72129 -2.48956,0.0174 -4.98809,0.0273 -7.46153,0.34471 -2.22619,0.37081 -4.40326,0.96765 -6.59137,1.51308 -0.74243,0.27293 -2.86675,1.32565 -2.18686,0.92136 20.90915,-12.43356 13.91149,-8.31483 9.60048,-5.48791 -0.39174,0.25688 -0.7678,0.53692 -1.1517,0.80539 -0.20532,0.11656 -2.50283,1.41508 -2.68016,1.53949 -2.06576,1.44936 -3.75386,3.40665 -5.26751,5.39847 -2.73422,3.38217 -4.942,7.12674 -7.31154,10.76707 -2.35972,3.26587 -4.26091,6.84542 -6.3369,10.29495 -2.02829,3.72298 -4.26012,7.34515 -6.06203,11.1826 -2.05261,3.45942 -3.95149,7.00685 -5.48441,10.72954 -1.37207,3.16923 -2.67134,6.38561 -3.70485,9.679 -0.82219,3.74499 -1.2485,7.56721 -1.61932,11.37959 -0.44423,3.57657 -0.86787,7.15291 -1.13013,10.74938 0.003,3.36542 0.001,6.73252 -0.12575,10.09595 -0.18497,3.16576 -0.45679,6.32801 -1.0454,9.44845 -0.31902,3.3549 -0.8046,6.70893 -2.4622,9.70619 -1.46069,2.40229 -2.6536,4.9524 -4.19031,7.30453 -1.70689,2.63131 -3.6729,5.0553 -5.93411,7.22707 -2.42683,2.25664 -4.62566,4.72796 -7.18011,6.846 -1.89159,1.23749 -3.66843,2.71004 -5.61891,3.84925 -4.72734,2.76108 -9.47937,5.4797 -14.2297,8.20102 -0.52538,0.30098 -1.06464,0.57706 -1.59695,0.86559 -3.20495,1.70181 -6.3987,3.43907 -9.74955,4.84263 -2.76816,0.9678 -5.57718,1.81895 -8.36764,2.72122 -2.44744,0.80795 -4.95321,1.36239 -7.46936,1.91118 -2.4066,0.50269 -4.76575,1.16742 -7.14092,1.79988 -3.62839,1.08312 -7.23106,2.23742 -10.89775,3.18451 -3.29394,1.1034 -6.58317,2.26104 -9.73074,3.73822 -5.37456,2.59876 -18.21642,8.66345 4.57547,-3.38593 -2.63939,1.52418 -5.25883,3.06847 -7.67889,4.93102 -2.5606,1.75854 -4.66521,4.01864 -6.93514,6.12643 -2.56772,2.16609 -4.50308,4.92207 -6.48338,7.61518 -1.81887,2.9277 -4.2119,5.50372 -5.55444,8.73148 -1.52118,3.05489 -2.9305,6.22744 -3.46453,9.62251 -0.36599,1.73578 -0.88111,3.55543 -0.99167,5.33108 -0.12285,1.97305 0.18854,3.97488 0.17687,5.94769 0.26705,3.83979 0.7827,7.64836 1.92863,11.33822 0.96321,3.57632 2.28267,7.07001 4.49007,10.08194 1.45879,2.08141 3.11459,3.87541 5.4084,5.0612 1.97937,1.36689 3.97624,2.68954 6.12256,3.78784 2.25888,1.17947 4.59313,1.94745 7.10827,2.40145 2.76699,0.66145 5.53696,0.71646 8.37676,0.59797 2.96875,-0.0425 5.95416,-0.10066 8.88351,-0.63481 2.73478,-0.58863 5.42995,-1.38612 7.98718,-2.53266 0.77287,-0.31601 2.07482,-0.84067 2.82298,-1.17908 0.47058,-0.21285 1.83974,-0.93624 1.39691,-0.67043 -20.38482,12.2357 -13.31815,7.93117 -8.97422,5.15665 2.26187,-1.74047 4.68884,-3.2529 6.90669,-5.03315 2.57186,-1.84525 4.59123,-4.25 5.92453,-7.13038 1.91101,-3.06356 3.27624,-6.45816 4.56711,-9.82211 1.61239,-3.8906 2.33436,-7.94169 2.67729,-12.13267 0.67569,-4.68432 0.68858,-9.18818 -0.0105,-13.88772 -0.61572,-5.47756 -1.01142,-10.96925 -1.37819,-16.46959 -0.15398,-5.25235 -0.51194,-10.51739 -0.0971,-15.76566 0.15629,-3.57663 -0.29868,-7.14096 -0.22983,-10.72064 0.34979,-3.52882 0.69772,-7.04081 0.68322,-10.59383 0.24036,-4.18082 0.69422,-8.34484 1.40625,-12.47335 0.59627,-3.65176 0.45523,-7.31947 0.42774,-11.00993 -0.001,-3.55317 0.006,-7.10642 0.0553,-10.65931 0.0752,-4.16904 0.19586,-8.33913 0.49409,-12.49899 0.31581,-3.61916 0.63387,-7.22447 0.45895,-10.86345 -0.0348,-3.92507 -0.0806,-7.85013 -0.17665,-11.77424 -0.0744,-4.03724 -0.24753,-8.10565 0.7501,-12.05781 0.72652,-4.18188 0.40669,-8.41585 0.50037,-12.64389 0.0636,-5.22458 0.16782,-10.45142 0.55856,-15.66369 0.47104,-5.34801 1.38159,-10.67184 1.45922,-16.03745 -0.0242,-4.30184 -0.0715,-8.60443 0.0264,-12.90566 0.11823,-4.52948 0.36119,-9.05658 0.86218,-13.5616 0.61289,-5.79469 0.92883,-11.60747 1.21611,-17.42705 0.056,-6.03982 0.18853,-12.08199 0.58558,-18.11025 0.38478,-4.77214 0.85514,-9.53823 0.85192,-14.33162 -0.16317,-11.70701 -5.33996,-5.33477 12.37201,-14.89121 -1.55056,0.0577 -1.4403,3.52263 -2.21298,4.51128 -0.55582,1.22826 -0.8699,2.53959 -1.44464,3.75606 -0.56067,1.18672 -1.27593,2.29474 -1.49761,3.62904 -1.21567,3.06832 -2.15319,6.27306 -3.94837,9.0868 -1.78927,3.1725 -4.00663,6.06704 -6.30127,8.8899 -0.96127,1.29903 -1.09736,1.64823 -2.34632,2.68452 -3.34007,2.77133 0.60765,-0.93915 -2.79503,2.13869 -0.46404,0.41973 -0.8569,0.91631 -1.33696,1.31762 -0.46714,0.39051 -0.99659,0.69979 -1.49489,1.04968 -7.03449,5.32641 -15.01001,9.30519 -22.56094,13.80716 -3.2726,1.70956 -6.612,3.29614 -9.96575,4.83905 -2.33041,1.02988 -4.75948,1.59358 -7.29628,1.8567 -2.93591,0.35668 -5.80953,1.0357 -8.60461,2.01091 -4.09348,1.27255 -8.26957,2.25764 -12.3338,3.62118 -3.20422,1.03823 -6.54426,2.17277 -9.94852,2.07332 -2.44464,-0.27887 -4.84869,-0.72534 -6.94922,-2.09611 -2.49343,-1.33403 -5.13708,-2.35755 -7.64921,-3.65535 0,0 12.47043,-8.3105 12.47043,-8.3105 z"
       inkscape:connector-curvature="0"
       inkscape:export-filename="/home/deadshox/path3041.png"
       inkscape:export-xdpi="48.313042"
       inkscape:export-ydpi="48.313042" />
    <path
       style="fill:#552200"
       id="path3041"
       d="m 530.25181,418.2655 c 2.4297,1.57924 5.1871,2.52061 7.79516,3.74276 2.37576,0.9116 4.79566,1.60229 7.16686,2.54604 2.0417,0.8163 4.05366,1.57554 6.23156,1.93156 1.5443,-0.013 3.42198,0.66846 4.92244,0.0582 0.32147,-0.13073 0.58512,-0.37331 0.87767,-0.55997 5.63828,-3.1978 -7.2732,4.20137 -10.94297,6.24318 -0.28176,0.15677 0.5274,-0.37376 0.76634,-0.59026 0.78883,-0.71472 1.41566,-1.60858 2.04323,-2.45975 0.77339,-1.10419 1.53629,-2.21552 2.34223,-3.29619 0,0 13.79504,-5.8302 13.79504,-5.8302 l 0,0 c -0.95956,0.94754 -1.59093,2.09111 -2.4391,3.13303 -3.82396,6.32915 -9.9985,9.29383 -17.3249,12.04056 -2.09463,0.43735 -4.22268,0.20541 -6.31663,-0.18139 -2.19599,-0.50871 -4.2658,-1.3529 -6.35944,-2.17684 -2.37347,-0.94912 -4.87569,-1.50998 -7.17961,-2.6308 -2.65658,-1.20137 -5.34729,-2.3288 -7.91349,-3.722 0,0 12.53561,-8.24798 12.53561,-8.24798 z"
       inkscape:connector-curvature="0"
       inkscape:export-xdpi="48.313042"
       inkscape:export-ydpi="48.313042" />
  </g>
</svg>
